<?xml version="1.0" encoding="UTF-8" standalone="no"?>
<!-- Created with Inkscape (http://www.inkscape.org/) -->

<svg
   version="1.1"
   id="svg1"
   width="326"
   height="313"
   viewBox="0 0 326 313"
   sodipodi:docname="icon.svg"
   inkscape:version="1.3.2 (091e20e, 2023-11-25, custom)"
   xmlns:inkscape="http://www.inkscape.org/namespaces/inkscape"
   xmlns:sodipodi="http://sodipodi.sourceforge.net/DTD/sodipodi-0.dtd"
   xmlns:xlink="http://www.w3.org/1999/xlink"
   xmlns="http://www.w3.org/2000/svg"
   xmlns:svg="http://www.w3.org/2000/svg">
  <defs
     id="defs1" />
  <sodipodi:namedview
     id="namedview1"
     pagecolor="#ffffff"
     bordercolor="#000000"
     borderopacity="0.25"
     inkscape:showpageshadow="2"
     inkscape:pageopacity="0.0"
     inkscape:pagecheckerboard="0"
     inkscape:deskcolor="#d1d1d1"
     inkscape:zoom="2.6996805"
     inkscape:cx="163.16746"
     inkscape:cy="156.5"
     inkscape:window-width="1918"
     inkscape:window-height="1041"
     inkscape:window-x="1913"
     inkscape:window-y="0"
     inkscape:window-maximized="0"
     inkscape:current-layer="g1" />
  <g
     inkscape:groupmode="layer"
     inkscape:label="Image"
     id="g1">

    <path
       style="fill:#000000"
       d="m 126.93357,306.69497 c -1.51503,-5.32122 -2.82789,-21.27721 -2.47454,-30.07457 0.38532,-9.59337 0.55934,-10.27568 3.37215,-13.22177 5.63335,-5.90029 29.77869,-23.44259 40.96586,-29.76292 3.26935,-1.84705 0.97707,-1.35312 -6.12316,1.3194 -9.72408,3.66013 -15.17512,6.91061 -32.49957,19.37967 -1.06204,0.76439 -2.09466,1.21439 -2.29471,1 -1.32723,-1.42243 13.41797,-27.88981 15.53765,-27.88981 0.50916,0 4.4029,-1.96319 8.65277,-4.36265 11.67279,-6.59042 32.25086,-17.95694 36.43754,-20.12667 2.04079,-1.05763 3.59102,-2.04247 3.44496,-2.18853 -0.73803,-0.73804 -22.54964,8.29626 -33.57768,13.90776 -2.98221,1.51746 -5.63556,2.54566 -5.89634,2.28489 -0.26077,-0.26078 0.65975,-2.17079 2.04562,-4.24447 4.98799,-7.46356 11.05611,-13.33081 17.53365,-16.95326 6.92461,-3.87247 26.23927,-17.83432 26.23927,-18.96741 0,-0.3628 -0.7875,0.022 -1.75,0.85514 -4.06789,3.52112 -26.25,15.65161 -26.25,14.35506 0,-0.75225 1.48535,-3.99846 3.30077,-7.21379 1.81542,-3.21534 4.17792,-7.98188 5.25,-10.59232 2.14061,-5.21226 3.64382,-5.74559 10.45583,-3.70968 1.92137,0.57424 7.47603,1.37993 12.34369,1.79042 8.07094,0.68063 8.6791,0.6107 6.90618,-0.79407 -1.06926,-0.84723 -6.51439,-5.03554 -12.10029,-9.30736 -5.5859,-4.27182 -10.15618,-8.20932 -10.15618,-8.75 0,-1.23945 -0.38395,-1.22128 23.5,-1.11197 11,0.0504 22.925,-0.27177 26.5,-0.71583 l 6.5,-0.80738 -5,-2.24463 c -2.75,-1.23455 -6.35,-2.86072 -8,-3.6137 -1.65,-0.75299 -5.475,-2.27514 -8.5,-3.38255 -13.80696,-5.05456 -18.10789,-6.89267 -18.05936,-7.71812 0.061,-1.03729 4.8627,-2.21328 22.05936,-5.40257 6.875,-1.27504 17.45,-3.6684 23.5,-5.31858 6.05,-1.65018 13.025,-3.19412 15.5,-3.43098 2.475,-0.23686 4.90259,-0.81212 5.39465,-1.27835 1.16852,-1.10719 -1.93685,-1.70464 -12.39465,-2.38463 -4.675,-0.30398 -17.725,-1.4527 -29,-2.55271 -11.275,-1.1 -21.31406,-2.00474 -22.30902,-2.01053 -0.99495,-0.006 -1.54094,-0.44429 -1.21328,-0.97444 0.32765,-0.53015 11.0417,-6.18454 23.80901,-12.565323 12.76731,-6.380779 24.48169,-12.582956 26.03196,-13.782614 l 2.81868,-2.181198 6.18132,3.388642 c 6.31358,3.461139 20.18318,12.492145 24.68133,16.070913 2.91109,2.31609 1.47191,2.61619 -3.21607,0.67063 -8.30041,-3.444757 -28.04578,-8.129113 -31.43183,-7.456832 -1.14005,0.226351 0.586,2.594628 5.91173,8.111352 4.13705,4.28541 8.80762,9.67027 10.37904,11.96635 1.57142,2.29609 3.62509,4.9578 4.56371,5.91493 2.47898,2.52785 10.28996,19.10668 13.11049,27.82706 4.02322,12.4388 5.86555,19.15071 5.38777,19.62849 -0.24901,0.24901 -1.6608,-1.85761 -3.13732,-4.68138 -5.35378,-10.23892 -16.7266,-23.72615 -22.81752,-27.0597 -1.87621,-1.02685 -2.38351,0.0791 -0.77439,1.68819 0.53658,0.53659 2.11158,5.45377 3.5,10.92707 4.79291,18.89423 2.99253,56.76886 -3.41642,71.87105 l -1.6439,3.87373 -1.24999,-14.37373 c -0.68749,-7.90554 -1.86852,-16.39872 -2.62449,-18.87372 -0.75598,-2.475 -1.69103,-6.3 -2.0779,-8.5 l -0.70341,-4 -1.90279,8 c -4.05316,17.04084 -11.46384,33.66962 -22.03172,49.43685 -5.97425,8.91355 -20.27013,24.95134 -21.31232,23.90915 -0.26454,-0.26454 1.78832,-5.08143 4.5619,-10.70421 5.36283,-10.87185 7.33567,-15.76225 9.43648,-23.39179 1.38183,-5.0184 1.12754,-5.61469 -1.43231,-3.3586 -0.86831,0.76527 -9.30441,6.58984 -18.74691,12.94348 -26.93658,18.12503 -37.26625,26.07484 -52.18896,40.16512 -8.6422,8.16012 -18.95948,20.59823 -22.88794,27.59284 -2.9692,5.28664 -3.8422,5.88343 -4.6184,3.15716 z M 97.071303,226.3859 c -3.427188,-3.75818 -8.605535,-11.72572 -16.118497,-24.80035 -4.210671,-7.32772 -7.655765,-13.46331 -7.655765,-13.63462 0,-0.17132 2.3625,-1.84645 5.25,-3.72252 2.8875,-1.87607 7.5,-4.88039 10.25,-6.67627 4.056514,-2.64909 5.711767,-3.17337 8.772002,-2.77841 3.375137,0.43561 3.930207,0.18089 5.275677,-2.42097 0.82703,-1.59928 2.17441,-2.90779 2.99418,-2.90779 0.81977,0 2.20249,-1.49305 3.07269,-3.31789 0.87021,-1.82484 2.77543,-3.83979 4.23382,-4.47767 1.4584,-0.63787 4.45163,-2.2943 6.65163,-3.68095 3.1312,-1.97357 4.8688,-2.41047 8,-2.0115 3.92991,0.50073 4.04479,0.42466 6.55609,-4.3411 l 2.55609,-4.85077 -3.05609,0.97398 c -1.68085,0.53569 -3.95609,1.45549 -5.05609,2.04399 -12.60539,6.74388 -15.09811,7.80112 -17.54604,7.44184 -2.40307,-0.35269 -3.05738,0.24794 -5.89698,5.41316 -3.24113,5.89561 -5.401391,7.80691 -8.823841,7.80691 -2.783534,0 -19.737203,9.03841 -23.350337,12.44863 -1.707238,1.61136 -4.238104,5.54461 -5.624147,8.74056 -1.386043,3.19594 -2.816122,5.81081 -3.177952,5.81081 -0.361831,0 -2.397156,-5.9625 -4.522945,-13.25 -2.125789,-7.2875 -4.505241,-15.21101 -5.287671,-17.60781 -1.360068,-4.16626 -1.289953,-4.69372 1.595143,-12 1.659758,-4.2032 4.619073,-11.80469 6.576257,-16.89219 8.338387,-21.67479 10.908947,-27.8327 12.195234,-29.21429 1.189508,-1.27763 1.36328,-1.24116 1.36328,0.28619 0,0.96276 -0.864823,5.44669 -1.92183,9.96429 -2.036229,8.70274 -4.0958,22.33205 -4.084778,27.0312 0.0058,2.46071 0.289779,2.72751 2.243353,2.10747 1.23021,-0.39045 6.96771,-3.66072 12.75,-7.26726 5.782291,-3.60654 10.625125,-6.61677 10.761856,-6.6894 0.13673,-0.0726 -0.471903,-4.32649 -1.352516,-9.45301 -1.483227,-8.63465 -1.479591,-9.38895 0.04938,-10.24461 2.812272,-1.57383 12.738031,-10.85791 21.591911,-20.196055 17.7621,-18.733587 34.74534,-35.370079 41.96262,-41.105873 4.125,-3.278263 7.725,-6.235098 8,-6.570745 0.275,-0.335646 6.125,-4.630654 13,-9.544461 22.13739,-15.822376 50.64839,-32.9706489 53.3309,-32.0764812 0.59915,0.1997167 -1.75261,2.2930637 -5.22612,4.6518822 -18.28626,12.417962 -52.58244,44.869854 -60.04464,56.815721 -1.4583,2.334512 -4.80184,5.608307 -7.4301,7.275099 -6.05996,3.843112 -26.88981,24.503899 -21.63004,21.454477 2.33495,-1.353714 15.30767,-10.240061 28.50585,-19.526578 16.20811,-11.404366 32.6227,-22.034608 37.49415,-24.28156 0.825,-0.380531 3.525,-1.86163 6,-3.291332 9.25705,-5.347399 25.87197,-13.681255 37,-18.558779 14.78858,-6.481977 42.95817,-15.885531 47.29879,-15.78925 0.66067,0.01465 -6.12422,3.634767 -15.07752,8.044695 -15.10515,7.440006 -32.09804,17.422316 -43.47358,25.538144 -2.61378,1.864784 -4.97028,3.390516 -5.23667,3.390516 -0.48792,0 -20.43367,15.173751 -26.01102,19.787919 -13.89225,11.493123 -30.50395,29.212081 -27.38661,29.212081 1.17796,0 8.95976,-1.719821 34.38661,-7.599633 6.05,-1.399028 14.825,-3.687824 19.5,-5.086213 8.49191,-2.540106 18.6966,-5.314154 19.54879,-5.314154 0.24817,0 0.45121,0.378817 0.45121,0.841815 0,0.462998 -3.9375,2.560838 -8.75,4.661867 -13.81139,6.029744 -44.32599,20.869688 -49,23.829808 -2.3375,1.48038 -4.25,3.06798 -4.25,3.52799 0,0.46002 4.3875,1.12903 9.75,1.48668 7.31803,0.48808 45.77034,3.35132 49.25,3.66726 2.07731,0.18861 -3.56378,1.88636 -8,2.40769 -18.8119,2.21071 -46.34039,7.32854 -50.478,9.38439 -2.72649,1.3547 -2.81095,1.5426 -1,2.22481 1.0879,0.40983 7.153,2.84837 13.478,5.41899 6.325,2.57062 14.99906,5.83413 19.27569,7.25225 4.27662,1.41813 7.63663,2.71747 7.46668,2.88742 -0.16996,0.16995 -5.69402,-0.10783 -12.27569,-0.6173 -6.58167,-0.50947 -18.32408,-0.93696 -26.09423,-0.94999 -18.02413,-0.0302 -18.92775,0.65352 -10.2529,7.75788 3.38341,2.77088 9.11319,6.76607 12.73284,8.8782 5.30201,3.09382 6.1452,3.90302 4.33805,4.16325 -1.23374,0.17765 -5.49379,-0.5872 -9.4668,-1.69967 -8.82563,-2.47124 -19.59144,-4.80332 -26.03583,-5.63987 l -4.81218,-0.62467 1.48675,2.8206 c 0.81772,1.55133 2.6457,4.37053 4.06219,6.26488 3.85505,5.15559 3.39143,6.29452 -1.67457,4.1138 -2.3375,-1.0062 -7.28677,-2.41331 -10.99837,-3.12691 -5.99418,-1.15244 -7.39117,-1.09913 -12.5,0.47703 -11.39453,3.51539 -26.25163,13.3634 -26.25163,17.40084 0,0.77173 1.35,3.10767 3,5.19096 1.65,2.08329 3,4.00477 3,4.26995 0,0.55197 -10.61249,-1.65379 -13.25,-2.75396 -1.00264,-0.41822 -1.75,-0.29262 -1.75,0.29412 0,1.71134 3.89692,10.23639 6.0818,13.30476 1.94015,2.7247 1.95202,2.88513 0.21349,2.88513 -1.01249,0 -4.17611,-1.53792 -7.03026,-3.4176 -2.854154,-1.87968 -5.723381,-3.74764 -6.376063,-4.15102 -1.676936,-1.03641 -0.411907,7.7642 2.189732,15.23362 3.119921,8.95741 3.214721,9.34078 2.287934,9.25167 -0.476647,-0.0458 -1.643214,-0.93492 -2.59237,-1.97574 z M 80.121828,157.93642 c -0.317446,-0.31744 -2.207887,0.20046 -4.20098,1.1509 -2.995297,1.42836 -3.623807,2.25708 -3.623807,4.77816 v 3.05008 l 4.200981,-4.20098 c 2.310539,-2.31054 3.941252,-4.46071 3.623806,-4.77816 z M 134.9667,127.3793 c 0.733,-1.7433 2.94552,-5.36669 4.9167,-8.05198 1.97119,-2.68529 3.20815,-4.87667 2.74881,-4.86974 -1.08966,0.0165 -15.45812,8.03863 -17.92783,10.00943 -1.04903,0.83713 -2.90199,2.64713 -4.11768,4.02224 l -2.21034,2.50019 7.62881,-0.22025 c 7.54194,-0.21775 7.64397,-0.25635 8.96153,-3.38989 z m -32.63512,-26.5599 c -0.0831,-2.70874 20.28959,-45.961085 27.97154,-59.385055 7.6907,-13.439267 8.29706,-12.82787 2.48992,2.510625 -2.90921,7.684171 -9.767,28.678686 -11.43264,35 -0.76631,2.908274 -3.50221,6.592849 -10.02413,13.5 -4.93358,5.225 -8.98569,8.99349 -9.00469,8.37443 z M 203.79704,77.831951 c 7.15,-6.953865 14.75502,-13.935698 16.90004,-15.515186 l 3.90004,-2.871795 h 16.04996 c 8.82748,0 15.62246,0.371012 15.09996,0.824472 -0.5225,0.453459 -4.55,1.628635 -8.95,2.611503 -8.14318,1.819016 -22.5,7.197261 -22.5,8.428785 0,0.600035 5.26738,2.288971 15.87227,5.08929 1.85474,0.489763 3.82119,1.339411 4.36989,1.888106 1.2771,1.277098 -2.53166,2.36908 -21.74216,6.233535 -8.25,1.659601 -16.575,3.405385 -18.5,3.87952 -1.925,0.474134 -5.75,1.135009 -8.5,1.468611 l -5,0.606548 z m -78.5,-1.919099 c 0,-2.888257 10.62683,-18.832157 19.63134,-29.453776 1.17224,-1.382758 6.0593,-7.152047 10.86014,-12.820641 4.80083,-5.668594 8.96045,-10.074872 9.24359,-9.79173 0.28314,0.283143 -1.03741,2.896083 -2.93457,5.806535 -5.26294,8.073941 -7.27649,11.576672 -11.75722,20.452603 -2.74514,5.437871 -5.52508,9.32675 -8.33152,11.655024 -2.31647,1.921784 -6.82993,6.011891 -10.02991,9.089128 -5.61008,5.394873 -6.68185,6.206958 -6.68185,5.062857 z"
       id="path1" />
  </g>
</svg>
